# xmcd
#
# Track frame offsets:
# 150
# 13555
# 23738
# 41437
# 58197
# 74387
# 92004
# 107914
# 125824
# 142091
#
# Disc length: 2121 seconds
#
#
# Revision: 0
# Processed by: cddbd v1.5.1PL2 Copyright (c) Steve Scherf et al.
# Submitted via: FreeRIP 2.945 
#
DISCID=8d08470a
DTITLE=Allisun Tramp and Shawn Munyon - Tribute To Shania Twain and Garth  Brooks
DYEAR=2002
DGENRE=Country
TTITLE0=Come On Over
TTITLE1=Long Neck Bottle
TTITLE2=Man ! I Feel Like a Woman
TTITLE3=The Dance
TTITLE4=You're Still The One
TTITLE5=To Make You Feel My Love
TTITLE6=Honey, I'm Home
TTITLE7=It's Your Song
TTITLE8=Don't Be Stupid (You Know I Love)
TTITLE9=Frienda In Low Places
EXTD=Countdown Music
EXTT0=
EXTT1=
EXTT2=
EXTT3=
EXTT4=
EXTT5=
EXTT6=
EXTT7=
EXTT8=
EXTT9=
PLAYORDER=
